<svg version="1.1" id="Layer_1" xmlns="http://www.w3.org/2000/svg" xmlns:xlink="http://www.w3.org/1999/xlink" x="0px" y="0px" viewBox="0 0 24 24" style="enable-background:new 0 0 512 512;" xml:space="preserve" width="24" height="24"><g><g><path d="M16.851 8.479h-7.157v-2.933c0 -1.272 1.034 -2.306 2.306 -2.306s2.306 1.034 2.306 2.306c0 0.895 0.725 1.62 1.62 1.62s1.62 -0.725 1.62 -1.62C17.547 2.488 15.058 0 12 0S6.453 2.488 6.453 5.547v3.002c-1.613 0.324 -2.832 1.751 -2.832 3.458v10.023C3.622 23.116 4.506 24 5.593 24H18.407c1.087 0 1.971 -0.884 1.971 -1.971V12.006C20.378 10.061 18.796 8.479 16.851 8.479zM13.429 16.707v1.902c0 0.789 -0.64 1.429 -1.429 1.429s-1.429 -0.64 -1.429 -1.429v-1.902c-0.586 -0.436 -0.965 -1.134 -0.965 -1.921c0 -1.322 1.072 -2.394 2.394 -2.394c1.322 0 2.394 1.072 2.394 2.394C14.394 15.572 14.014 16.27 13.429 16.707z"/></g></g></svg>